<svg width="38" height="38" viewBox="0 0 38 38" fill="none" xmlns="http://www.w3.org/2000/svg">
<path fill-rule="evenodd" clip-rule="evenodd" d="M13.5084 4.65021C16.9678 2.64018 21.2199 2.67531 24.6468 4.74224C28.04 6.85127 30.1023 10.6153 30.0831 14.6643C30.0041 18.6867 27.7927 22.4678 25.0285 25.3908C23.4331 27.0855 21.6483 28.584 19.7107 29.8557C19.5111 29.9711 19.2925 30.0484 19.0657 30.0837C18.8474 30.0744 18.6347 30.0099 18.447 29.8959C15.4888 27.9851 12.8936 25.5459 10.7862 22.6958C9.02276 20.3167 8.0209 17.4423 7.91666 14.4632C7.91437 10.4064 10.049 6.66025 13.5084 4.65021ZM15.5072 16.1417C16.0891 17.5763 17.4626 18.512 18.9865 18.512C19.9848 18.5192 20.9444 18.1193 21.6516 17.4015C22.3587 16.6837 22.7546 15.7076 22.7511 14.6907C22.7564 13.1385 21.8426 11.7361 20.4363 11.1383C19.03 10.5406 17.4086 10.8653 16.3292 11.961C15.2498 13.0566 14.9253 14.7071 15.5072 16.1417Z" fill="#130F26"/>
<ellipse opacity="0.4" cx="19" cy="33.2503" rx="7.91667" ry="1.58333" fill="#130F26"/>
</svg>
