<svg width="33" height="33" viewBox="0 0 33 33" fill="none" xmlns="http://www.w3.org/2000/svg">
<path d="M24.475 28.8752C26.0151 28.8752 26.7852 28.8752 27.3735 28.5755C27.8909 28.3118 28.3116 27.8911 28.5753 27.3737C28.875 26.7854 28.875 26.0153 28.875 24.4752V15.4002C28.875 13.86 28.875 13.09 28.5753 12.5017C28.3116 11.9843 27.8909 11.5636 27.3735 11.2999C26.7852 11.0002 26.0151 11.0002 24.475 11.0002L8.525 11.0002C6.98486 11.0002 6.21478 11.0002 5.62653 11.2999C5.10908 11.5636 4.68838 11.9843 4.42473 12.5017C4.125 13.09 4.125 13.86 4.125 15.4002L4.125 24.4752C4.125 26.0153 4.125 26.7854 4.42473 27.3737C4.68838 27.8911 5.10908 28.3118 5.62653 28.5755C6.21478 28.8752 6.98486 28.8752 8.525 28.8752L24.475 28.8752Z" fill="#BABABA"/>
<path d="M23.375 19.9377C23.375 20.3174 23.0672 20.6252 22.6875 20.6252C22.3078 20.6252 22 20.3174 22 19.9377C22 19.558 22.3078 19.2502 22.6875 19.2502C23.0672 19.2502 23.375 19.558 23.375 19.9377Z" fill="#BABABA"/>
<path d="M22 11.0002V6.18859C22 5.04495 22 4.47313 21.7591 4.12172C21.5486 3.81469 21.2226 3.60612 20.8557 3.54368C20.4356 3.4722 19.9165 3.71183 18.8781 4.19108L6.68114 9.82043C5.75507 10.2478 5.29203 10.4616 4.9529 10.793C4.65308 11.086 4.42422 11.4437 4.28382 11.8387C4.125 12.2855 4.125 12.7955 4.125 13.8155L4.125 20.6252M22.6875 19.9377H22.7013M4.125 15.4002L4.125 24.4752C4.125 26.0153 4.125 26.7854 4.42473 27.3737C4.68838 27.8911 5.10908 28.3118 5.62653 28.5755C6.21478 28.8752 6.98486 28.8752 8.525 28.8752L24.475 28.8752C26.0151 28.8752 26.7852 28.8752 27.3735 28.5755C27.8909 28.3118 28.3116 27.8911 28.5753 27.3737C28.875 26.7854 28.875 26.0153 28.875 24.4752V15.4002C28.875 13.86 28.875 13.09 28.5753 12.5017C28.3116 11.9843 27.8909 11.5636 27.3735 11.2999C26.7852 11.0002 26.0151 11.0002 24.475 11.0002L8.525 11.0002C6.98486 11.0002 6.21478 11.0002 5.62653 11.2999C5.10908 11.5636 4.68838 11.9843 4.42473 12.5017C4.125 13.09 4.125 13.86 4.125 15.4002ZM23.375 19.9377C23.375 20.3174 23.0672 20.6252 22.6875 20.6252C22.3078 20.6252 22 20.3174 22 19.9377C22 19.558 22.3078 19.2502 22.6875 19.2502C23.0672 19.2502 23.375 19.558 23.375 19.9377Z" stroke="black" stroke-width="2" stroke-linecap="round" stroke-linejoin="round"/>
</svg>
